<?xml version="1.0" encoding="UTF-8" standalone="no"?>
<!-- Generator: Adobe Illustrator 27.6.1, SVG Export Plug-In . SVG Version: 6.00 Build 0)  -->

<svg
   version="1.1"
   id="Layer_1"
   x="0px"
   y="0px"
   viewBox="0 0 64 64"
   style="enable-background:new 0 0 64 64;"
   xml:space="preserve"
   sodipodi:docname="favicon-light.svg"
   inkscape:version="1.3 (0e150ed, 2023-07-21)"
   xmlns:inkscape="http://www.inkscape.org/namespaces/inkscape"
   xmlns:sodipodi="http://sodipodi.sourceforge.net/DTD/sodipodi-0.dtd"
   xmlns="http://www.w3.org/2000/svg"
   xmlns:svg="http://www.w3.org/2000/svg"><defs
   id="defs3" /><sodipodi:namedview
   id="namedview3"
   pagecolor="#ffffff"
   bordercolor="#666666"
   borderopacity="1.0"
   inkscape:showpageshadow="2"
   inkscape:pageopacity="0.0"
   inkscape:pagecheckerboard="0"
   inkscape:deskcolor="#d1d1d1"
   inkscape:zoom="6.7742388"
   inkscape:cx="59.637697"
   inkscape:cy="35.79738"
   inkscape:window-width="1408"
   inkscape:window-height="940"
   inkscape:window-x="31"
   inkscape:window-y="109"
   inkscape:window-maximized="0"
   inkscape:current-layer="Layer_1" />&#10;<style
   type="text/css"
   id="style1">&#10;	.st0{fill:#1E1741;}&#10;</style>&#10;&#10;<g
   id="g5"
   inkscape:export-filename="g5.png"
   inkscape:export-xdpi="96"
   inkscape:export-ydpi="96"><circle
     style="fill:#ffffff;fill-opacity:1;stroke:#000000;stroke-width:0;stroke-dasharray:none"
     id="path5"
     cx="32"
     cy="32"
     r="32" /><g
     id="g3"
     transform="matrix(0.88740209,0,0,0.88740209,3.6031331,3.6086794)">&#10;	<path
   class="st0"
   d="M 34.71,34.43 V 63.59 L 57.59,51.23 c 3.11,-1.68 5.05,-4.93 5.05,-8.47 V 19.47 Z"
   id="path1" />&#10;	<path
   class="st0"
   d="M 26.8,37.47 V 59.63 L 7.8,49.37 C 5.34,48.04 3.81,45.48 3.81,42.68 V 23.55 L 24.96,34.97 27.57,33.59 1.36,19.43 v 23.25 c 0,3.7 2.02,7.09 5.28,8.85 L 29.26,63.74 V 36.17 Z"
   id="path2" />&#10;	<path
   class="st0"
   d="M 54.53,17.03 31.98,29.12 6.57,15.49 28.26,3.66 c 2.33,-1.27 5.11,-1.27 7.44,0 l 18.87,10.29 h 5.12 L 36.87,1.5 c -3.06,-1.67 -6.72,-1.67 -9.79,0 L 1.41,15.51 31.98,31.91 59.72,17.03 Z"
   id="path3" />&#10;</g></g></svg>
