<?xml version="1.0" encoding="UTF-8" standalone="no"?>
<svg
   width="16"
   height="16"
   fill="currentColor"
   class="bi bi-chat-right-text"
   viewBox="0 0 16 16"
   version="1.1"
   id="svg6"
   sodipodi:docname="chat.svg"
   inkscape:version="1.1.2 (0a00cf5339, 2022-02-04)"
   xmlns:inkscape="http://www.inkscape.org/namespaces/inkscape"
   xmlns:sodipodi="http://sodipodi.sourceforge.net/DTD/sodipodi-0.dtd"
   xmlns="http://www.w3.org/2000/svg"
   xmlns:svg="http://www.w3.org/2000/svg">
  <defs
     id="defs10" />
  <sodipodi:namedview
     id="namedview8"
     pagecolor="#ffffff"
     bordercolor="#666666"
     borderopacity="1.0"
     inkscape:pageshadow="2"
     inkscape:pageopacity="0.0"
     inkscape:pagecheckerboard="0"
     showgrid="false"
     inkscape:zoom="54.5625"
     inkscape:cx="8"
     inkscape:cy="7.9908362"
     inkscape:window-width="1440"
     inkscape:window-height="2523"
     inkscape:window-x="0"
     inkscape:window-y="0"
     inkscape:window-maximized="1"
     inkscape:current-layer="svg6" />
  <path
     d="M2 1a1 1 0 0 0-1 1v8a1 1 0 0 0 1 1h9.586a2 2 0 0 1 1.414.586l2 2V2a1 1 0 0 0-1-1zm12-1a2 2 0 0 1 2 2v12.793a.5.5 0 0 1-.854.353l-2.853-2.853a1 1 0 0 0-.707-.293H2a2 2 0 0 1-2-2V2a2 2 0 0 1 2-2z"
     id="path2"
     style="fill:#ffffff" />
  <path
     d="M3 3.5a.5.5 0 0 1 .5-.5h9a.5.5 0 0 1 0 1h-9a.5.5 0 0 1-.5-.5M3 6a.5.5 0 0 1 .5-.5h9a.5.5 0 0 1 0 1h-9A.5.5 0 0 1 3 6m0 2.5a.5.5 0 0 1 .5-.5h5a.5.5 0 0 1 0 1h-5a.5.5 0 0 1-.5-.5"
     id="path4"
     style="fill:#ffffff" />
</svg>
