<svg xmlns="http://www.w3.org/2000/svg" width="16" height="16"><path d="M5.533.957.804 5.523" style="fill:none;stroke:#4e4184;stroke-width:.36226896;stroke-linecap:round;stroke-linejoin:miter;stroke-miterlimit:3.9;stroke-dasharray:1.08680229,1.08680229;stroke-dashoffset:.543403;stroke-opacity:1" transform="translate(-1.014 -.708) scale(2.76038)"/><path d="m5.695.786.032 1.037M5.695.786 4.66.818" style="fill:none;stroke:#4e4184;stroke-width:.36226896;stroke-linecap:round;stroke-linejoin:round;stroke-miterlimit:4;stroke-dasharray:none;stroke-opacity:1" transform="translate(-1.014 -.708) scale(2.76038)"/><g aria-label="&lt;A&gt;" style="font-style:normal;font-weight:400;font-size:10.5833px;line-height:1.25;font-family:sans-serif;letter-spacing:0;word-spacing:0;fill:#4e4184;fill-opacity:1;stroke:none;stroke-width:.264583;stroke-opacity:1"><path d="m3.506 5.838-1.038-.451v-.25l1.038-.45v.295l-.724.277.724.287Z" style="font-style:normal;font-variant:normal;font-weight:700;font-stretch:normal;font-size:2.11667px;font-family:sans-serif;-inkscape-font-specification:&quot;sans-serif Bold&quot;;fill:#4e4184;fill-opacity:1;stroke:none;stroke-width:.264583;stroke-opacity:1" transform="translate(-1.487 -1.186) scale(2.76038)"/><path d="M5.126 6.011h-.333l-.132-.344h-.606l-.125.344h-.324l.59-1.515h.323Zm-.563-.6-.209-.562-.205.563Z" style="font-style:normal;font-variant:normal;font-weight:700;font-stretch:normal;font-family:Arial;-inkscape-font-specification:&quot;Arial Bold&quot;" transform="translate(-1.487 -1.186) scale(2.76038)"/><path d="M5.232 5.84v-.293l.726-.285-.726-.282v-.29l1.04.449v.248z" style="font-style:normal;font-variant:normal;font-weight:700;font-stretch:normal;font-size:2.11667px;font-family:sans-serif;-inkscape-font-specification:&quot;sans-serif Bold&quot;;fill:#4e4184;fill-opacity:1;stroke:none;stroke-width:.264583;stroke-opacity:1" transform="translate(-1.487 -1.186) scale(2.76038)"/></g></svg>