<svg xmlns="http://www.w3.org/2000/svg" xmlns:xlink="http://www.w3.org/1999/xlink" xml:space="preserve" width="16" height="16"><defs><linearGradient id="b"><stop offset="0" style="stop-color:#a1a4c4;stop-opacity:1"/><stop offset="1" style="stop-color:#8083c6;stop-opacity:1"/></linearGradient><linearGradient id="a"><stop offset="0" style="stop-color:#e8e9f0;stop-opacity:1"/><stop offset="1" style="stop-color:#fdfeff;stop-opacity:1"/></linearGradient><linearGradient xlink:href="#a" id="d" x1="-1.399" x2=".808" y1="1.9" y2="4.389" gradientTransform="matrix(1.12032 0 0 1.20284 3.974 -.101)" gradientUnits="userSpaceOnUse"/><linearGradient xlink:href="#b" id="e" x1="-.801" x2="2.599" y1="-3.735" y2="4.018" gradientUnits="userSpaceOnUse"/><linearGradient id="c"><stop offset="0" style="stop-color:#a1a4c4;stop-opacity:1"/><stop offset="1" style="stop-color:#8083c6;stop-opacity:1"/></linearGradient><linearGradient xlink:href="#c" id="f" x1="-.801" x2="2.599" y1="-3.735" y2="4.018" gradientUnits="userSpaceOnUse"/><linearGradient xlink:href="#c" id="g" x1="-.801" x2="2.599" y1="-3.735" y2="4.018" gradientUnits="userSpaceOnUse"/><linearGradient xlink:href="#c" id="i" x1="-.801" x2="2.599" y1="-3.735" y2="4.018" gradientUnits="userSpaceOnUse"/><linearGradient xlink:href="#c" id="j" x1="-.801" x2="2.599" y1="-3.735" y2="4.018" gradientUnits="userSpaceOnUse"/><linearGradient xlink:href="#c" id="h" x1="-.801" x2="2.599" y1="-3.735" y2="4.018" gradientUnits="userSpaceOnUse"/></defs><g transform="translate(-.95 .186) scale(3.81585)"><rect width="3.621" height="2.796" x=".673" y=".927" ry=".782" style="fill:url(#d);fill-opacity:1;stroke:#64669b;stroke-width:.245713;stroke-linecap:round;stroke-miterlimit:4;stroke-dasharray:none;stroke-dashoffset:.300095;stroke-opacity:1"/><g transform="translate(-1.32 .897) scale(.0145)"><g style="opacity:.531;fill:url(#e);fill-opacity:1;stroke:#64669b;stroke-width:.83646;stroke-miterlimit:4;stroke-dasharray:none;stroke-opacity:1" transform="translate(229.478 98.421) scale(9.56412)"><path d="m3.735-.8.944-.204.316.01 1.362.65v.688l-1.362.65-.316.01L3.735.8l-.528 1.274.811.524.217.23.504 1.422-.488.488-1.422-.504-.23-.217-.524-.81L.8 3.734l.203.944-.01.316-.65 1.362h-.688l-.65-1.362-.01-.316.203-.944-1.274-.528-.524.811-.23.217-1.422.504-.488-.488.504-1.422.217-.23.81-.524L-3.734.8l-.944.203-.316-.01-1.362-.65v-.688l1.362-.65.316-.01.944.203.528-1.274-.811-.524-.217-.23-.504-1.422.488-.488 1.422.504.23.217.524.81L-.8-3.734l-.203-.944.01-.316.65-1.362h.688l.65 1.362.01.316-.203.944 1.274.528.524-.811.23-.217 1.422-.504.488.488-.504 1.421-.217.23-.81.525z" style="fill:url(#f);fill-opacity:1;stroke:#64669b;stroke-width:.83646;stroke-miterlimit:4;stroke-dasharray:none;stroke-opacity:1"/><circle r="2" style="fill:url(#g);fill-opacity:1;stroke:#64669b;stroke-width:.83646;stroke-miterlimit:4;stroke-dasharray:none;stroke-opacity:1"/></g><circle cx="229.478" cy="98.421" r="4.633" style="opacity:1;fill:#fff;fill-opacity:1;stroke:none;stroke-width:15.0695;stroke-miterlimit:4;stroke-dasharray:none;stroke-opacity:1"/></g><g transform="translate(-.33 .897) scale(.0145)"><g style="fill:url(#h);fill-opacity:1;stroke:#64669b;stroke-width:.83646;stroke-miterlimit:4;stroke-dasharray:none;stroke-opacity:1" transform="translate(229.478 98.421) scale(9.56412)"><path d="m3.735-.8.944-.204.316.01 1.362.65v.688l-1.362.65-.316.01L3.735.8l-.528 1.274.811.524.217.23.504 1.422-.488.488-1.422-.504-.23-.217-.524-.81L.8 3.734l.203.944-.01.316-.65 1.362h-.688l-.65-1.362-.01-.316.203-.944-1.274-.528-.524.811-.23.217-1.422.504-.488-.488.504-1.422.217-.23.81-.524L-3.734.8l-.944.203-.316-.01-1.362-.65v-.688l1.362-.65.316-.01.944.203.528-1.274-.811-.524-.217-.23-.504-1.422.488-.488 1.422.504.23.217.524.81L-.8-3.734l-.203-.944.01-.316.65-1.362h.688l.65 1.362.01.316-.203.944 1.274.528.524-.811.23-.217 1.422-.504.488.488-.504 1.421-.217.23-.81.525z" style="fill:url(#i);fill-opacity:1;stroke:#64669b;stroke-width:.83646;stroke-miterlimit:4;stroke-dasharray:none;stroke-opacity:1"/><circle r="2" style="fill:url(#j);fill-opacity:1;stroke:#64669b;stroke-width:.83646;stroke-miterlimit:4;stroke-dasharray:none;stroke-opacity:1"/></g><circle cx="229.478" cy="98.421" r="4.633" style="opacity:1;fill:#fff;fill-opacity:1;stroke:none;stroke-width:15.0695;stroke-miterlimit:4;stroke-dasharray:none;stroke-opacity:1"/></g><path d="M.39.366v1.273L1.634.988Z" style="opacity:1;fill:#e8e9f0;fill-opacity:1;stroke:#a1a4c4;stroke-width:.232255;stroke-linecap:round;stroke-linejoin:round;stroke-opacity:1"/></g></svg>