<svg xmlns="http://www.w3.org/2000/svg" xmlns:xlink="http://www.w3.org/1999/xlink" width="16" height="16"><defs><linearGradient id="a"><stop offset="0" style="stop-color:#e8e9f0;stop-opacity:1"/><stop offset="1" style="stop-color:#fdfeff;stop-opacity:1"/></linearGradient><linearGradient xlink:href="#a" id="b" x1="-3.182" x2="-.147" y1=".414" y2="3.003" gradientTransform="matrix(3.959 0 0 4.85358 13.266 -2.647)" gradientUnits="userSpaceOnUse"/><linearGradient xlink:href="#a" id="c" x1=".609" x2="1.717" y1="2.004" y2="2.004" gradientTransform="translate(10.8 2.498) scale(3.42023)" gradientUnits="userSpaceOnUse"/><linearGradient xlink:href="#a" id="d" x1=".609" x2="1.717" y1="2.004" y2="2.004" gradientTransform="translate(10.8 -1.591) scale(3.42023)" gradientUnits="userSpaceOnUse"/></defs><g transform="translate(-.933 .861)"><rect width="12.798" height="11.282" x="1.601" y="1.498" ry="3.992" style="fill:url(#b);fill-opacity:1;stroke:#4e4184;stroke-width:1.05166;stroke-linecap:round;stroke-miterlimit:4;stroke-dasharray:none;stroke-dashoffset:.300095;stroke-opacity:1"/><path d="M13.167 8.076h3.224v2.543h-3.224z" style="fill:url(#c);fill-opacity:1;stroke:#4e4184;stroke-width:.8;stroke-linejoin:bevel;stroke-miterlimit:4;stroke-dasharray:none;stroke-dashoffset:0;stroke-opacity:1" transform="translate(0 -.164)"/><path d="M13.167 3.987h3.224V6.53h-3.224z" style="fill:url(#d);fill-opacity:1;stroke:#4e4184;stroke-width:.8;stroke-linejoin:bevel;stroke-miterlimit:4;stroke-dasharray:none;stroke-dashoffset:0;stroke-opacity:1" transform="translate(0 -.164)"/><path d="M8.364 6.244 5.327 9.145" style="fill:none;stroke:#4e4184;stroke-width:.378023;stroke-linecap:round;stroke-linejoin:miter;stroke-miterlimit:4;stroke-dasharray:none;stroke-opacity:1" transform="translate(.277 .284)"/><path d="m9.071 6.979-1.415-1.47m2.462-.944-2.46.941m2.46-.94L9.069 6.98" style="fill:none;stroke:#4e4184;stroke-width:.378023;stroke-linecap:round;stroke-linejoin:round;stroke-miterlimit:4;stroke-dasharray:none;stroke-opacity:1" transform="translate(.277 .284)"/><path d="M8.216 7.132v.005m-.75-.762v.005" style="fill:none;stroke:#4e4184;stroke-width:.330142;stroke-linecap:round;stroke-linejoin:round;stroke-miterlimit:4;stroke-dasharray:none;stroke-opacity:1" transform="translate(.277 .284)"/></g></svg>