<svg xmlns="http://www.w3.org/2000/svg" xmlns:xlink="http://www.w3.org/1999/xlink" width="16" height="16"><defs><linearGradient id="a"><stop offset="0" style="stop-color:#e8e9f0;stop-opacity:1"/><stop offset="1" style="stop-color:#fdfeff;stop-opacity:1"/></linearGradient><linearGradient xlink:href="#a" id="c" x1=".609" x2="1.717" y1="2.004" y2="2.004" gradientTransform="translate(10.8 2.498) scale(3.42023)" gradientUnits="userSpaceOnUse"/><linearGradient xlink:href="#a" id="d" x1=".609" x2="1.717" y1="2.004" y2="2.004" gradientTransform="translate(10.8 -1.591) scale(3.42023)" gradientUnits="userSpaceOnUse"/><linearGradient xlink:href="#a" id="b" x1="-3.182" x2="-.147" y1=".414" y2="3.003" gradientTransform="matrix(1.38148 0 0 1.69363 12.12 9.914)" gradientUnits="userSpaceOnUse"/></defs><path d="M5.533.957.804 5.523" style="fill:none;stroke:#4e4184;stroke-width:.396875;stroke-linecap:round;stroke-linejoin:miter;stroke-miterlimit:3.9;stroke-dasharray:1.19062,1.19062;stroke-dashoffset:.595312;stroke-opacity:1" transform="translate(-1.014 -.708) scale(2.76038)"/><path d="m5.695.786.032 1.037M5.695.786 4.66.818" style="fill:none;stroke:#4e4184;stroke-width:.396875;stroke-linecap:round;stroke-linejoin:round;stroke-miterlimit:4;stroke-dasharray:none;stroke-opacity:1" transform="translate(-1.014 -.708) scale(2.76038)"/><path d="M8.565 12.829h2.977m-2.952.954h3.876" style="fill:none;stroke:#4e4184;stroke-width:.343384;stroke-linecap:butt;stroke-linejoin:miter;stroke-miterlimit:4;stroke-dasharray:none;stroke-opacity:1"/><rect width="4.466" height="3.937" x="8.049" y="11.361" ry="1.393" style="fill:url(#b);fill-opacity:1;stroke:#4e4184;stroke-width:.366973;stroke-linecap:round;stroke-miterlimit:4;stroke-dasharray:none;stroke-dashoffset:.300095;stroke-opacity:1"/><path d="M13.167 8.076h3.224v2.543h-3.224z" style="fill:url(#c);fill-opacity:1;stroke:#4e4184;stroke-width:.8;stroke-linejoin:bevel;stroke-miterlimit:4;stroke-dasharray:none;stroke-dashoffset:0;stroke-opacity:1" transform="matrix(.34895 0 0 .34895 7.49 10.78)"/><path d="M13.167 3.987h3.224V6.53h-3.224z" style="fill:url(#d);fill-opacity:1;stroke:#4e4184;stroke-width:.8;stroke-linejoin:bevel;stroke-miterlimit:4;stroke-dasharray:none;stroke-dashoffset:0;stroke-opacity:1" transform="matrix(.34895 0 0 .34895 7.49 10.78)"/></svg>