<svg xmlns="http://www.w3.org/2000/svg" xmlns:xlink="http://www.w3.org/1999/xlink" xml:space="preserve" width="16" height="16"><defs><linearGradient id="a"><stop offset="0" style="stop-color:#4e4184;stop-opacity:1"/><stop offset="1" style="stop-color:#fff;stop-opacity:1"/></linearGradient><linearGradient xlink:href="#a" id="b" x1="3.369" x2="2.107" y1=".827" y2="-.411" gradientUnits="userSpaceOnUse"/></defs><path fill="none" d="M1.231 1.429h2.277v1.552H1.231z" style="fill:#4b7eb0;fill-opacity:0;stroke:none;stroke-width:.0756102;stroke-miterlimit:4;stroke-dasharray:none;stroke-opacity:.827451" transform="translate(-1.52 -.534) scale(3.88842)"/><g style="stroke:#64669b;stroke-opacity:1"><path d="M6.984 3.063H5.13" style="fill:none;stroke:#64669b;stroke-width:.277085;stroke-linecap:round;stroke-linejoin:miter;stroke-miterlimit:3.9;stroke-dasharray:none;stroke-dashoffset:.415627;stroke-opacity:1" transform="matrix(3.32538 0 0 3.95663 -8.462 -.463)"/><path d="m7.149 3.052-.638-.53m.638.53-.638.53" style="fill:none;stroke:#64669b;stroke-width:.277085;stroke-linecap:round;stroke-linejoin:round;stroke-miterlimit:4;stroke-dasharray:none;stroke-opacity:1" transform="matrix(3.32538 0 0 3.95663 -8.462 -.463)"/></g><g style="stroke:#64669b;stroke-opacity:1"><path d="M6.984 3.063H5.13" style="fill:none;stroke:#64669b;stroke-width:.277085;stroke-linecap:round;stroke-linejoin:miter;stroke-miterlimit:3.9;stroke-dasharray:none;stroke-dashoffset:.415627;stroke-opacity:1" transform="matrix(3.32538 0 0 3.95663 -8.57 -8.75)"/><path d="m7.149 3.052-.638-.53m.638.53-.638.53" style="fill:none;stroke:#64669b;stroke-width:.277085;stroke-linecap:round;stroke-linejoin:round;stroke-miterlimit:4;stroke-dasharray:none;stroke-opacity:1" transform="matrix(3.32538 0 0 3.95663 -8.57 -8.75)"/></g><path d="M1.871-.635v1.71h1.71v-1.71z" style="fill:url(#b);fill-opacity:1;stroke:#64669b;stroke-width:.150014;stroke-linecap:round;stroke-miterlimit:4;stroke-dasharray:none;stroke-dashoffset:.300095;stroke-opacity:1" transform="matrix(2.76353 2.73546 -2.68184 2.8156 -1.52 -.534)"/></svg>