<svg xmlns="http://www.w3.org/2000/svg" xmlns:xlink="http://www.w3.org/1999/xlink" xml:space="preserve" width="16" height="16"><defs><linearGradient id="a"><stop offset="0" style="stop-color:#4e4184;stop-opacity:1"/><stop offset="1" style="stop-color:#fff;stop-opacity:0"/></linearGradient><linearGradient xlink:href="#a" id="b" x1="1.607" x2="1.574" y1="3.553" y2="-2.893" gradientTransform="translate(2.628 .962) scale(3.39577)" gradientUnits="userSpaceOnUse"/></defs><path fill="none" d="M4.058 5.584h7.732v5.27H4.058Z" style="fill:#4b7eb0;fill-opacity:0;stroke:none;stroke-width:.256755;stroke-miterlimit:4;stroke-dasharray:none;stroke-opacity:.827451"/><g style="stroke:#64669b;stroke-opacity:1"><path d="M7.015 3.063H5.573" style="fill:none;stroke:#64669b;stroke-width:.277085;stroke-linecap:round;stroke-linejoin:miter;stroke-miterlimit:3.9;stroke-dasharray:none;stroke-dashoffset:.415627;stroke-opacity:1" transform="matrix(2.90407 0 0 3.45534 -5.252 -6.4)"/><path d="m7.149 3.052-.638-.53m.638.53-.638.53" style="fill:none;stroke:#64669b;stroke-width:.277085;stroke-linecap:round;stroke-linejoin:round;stroke-miterlimit:4;stroke-dasharray:none;stroke-opacity:1" transform="matrix(2.90407 0 0 3.45534 -5.252 -6.4)"/></g><g style="stroke:#64669b;stroke-opacity:1"><path d="M7.015 3.063H5.573" style="fill:none;stroke:#64669b;stroke-width:.277085;stroke-linecap:round;stroke-linejoin:miter;stroke-miterlimit:3.9;stroke-dasharray:none;stroke-dashoffset:.415627;stroke-opacity:1" transform="matrix(2.90407 0 0 3.45534 -5.252 .472)"/><path d="m7.149 3.052-.638-.53m.638.53-.638.53" style="fill:none;stroke:#64669b;stroke-width:.277085;stroke-linecap:round;stroke-linejoin:round;stroke-miterlimit:4;stroke-dasharray:none;stroke-opacity:1" transform="matrix(2.90407 0 0 3.45534 -5.252 .472)"/></g><g style="stroke:#64669b;stroke-opacity:1"><path d="M7.015 3.063H5.573" style="fill:none;stroke:#64669b;stroke-width:.277085;stroke-linecap:round;stroke-linejoin:miter;stroke-miterlimit:3.9;stroke-dasharray:none;stroke-dashoffset:.415627;stroke-opacity:1" transform="matrix(2.90407 0 0 3.45534 -15.702 -2.546)"/><path d="m7.149 3.052-.638-.53m.638.53-.638.53" style="fill:none;stroke:#64669b;stroke-width:.277085;stroke-linecap:round;stroke-linejoin:round;stroke-miterlimit:4;stroke-dasharray:none;stroke-opacity:1" transform="matrix(2.90407 0 0 3.45534 -15.702 -2.546)"/></g><path d="M5.616 1.42h4.768v13.16H5.616Z" style="fill:url(#b);fill-opacity:1;stroke:#64669b;stroke-width:.848943;stroke-linecap:square;stroke-dasharray:none"/></svg>