<svg xmlns="http://www.w3.org/2000/svg" width="18" height="16" viewBox="0 0 4.762 4.233"><path d="M6.191.182 2.155 4.16" style="fill:none;stroke:#4e4184;stroke-width:.39698468;stroke-linecap:round;stroke-linejoin:miter;stroke-miterlimit:4;stroke-dasharray:none;stroke-opacity:1" transform="translate(.134 .136) scale(.66643)"/><path d="M.554 4.161h1.601v1.602H.554Z" style="fill:none;fill-opacity:1;stroke:#4e4184;stroke-width:.39698468;stroke-linejoin:bevel;stroke-miterlimit:4;stroke-dasharray:none;stroke-dashoffset:0;stroke-opacity:1" transform="translate(.134 .136) scale(.66643)"/><path d="M3.663 2.91H2.58" style="fill:none;stroke:#4e4184;stroke-width:.115066;stroke-linecap:round;stroke-linejoin:miter;stroke-miterlimit:4;stroke-dasharray:none;stroke-opacity:1"/><path d="m4.39 2.91-.726.318m.725-.319-.726-.318m.001.637-.002-.637" style="fill:#000;fill-opacity:1;stroke:#4e4184;stroke-width:.115441;stroke-linecap:round;stroke-linejoin:round;stroke-miterlimit:4;stroke-dasharray:none;stroke-opacity:1"/><path d="m4.475 3.773.004-1.62" style="fill:none;stroke:#4e4184;stroke-width:.116023;stroke-linecap:round;stroke-linejoin:miter;stroke-miterlimit:4;stroke-dasharray:none;stroke-opacity:1"/><path d="m3.895 3.1.034-.313.156.072m-.276.29.04-.4m-.047-.079.336.134m.033.043-.34.095.003-.203m.427.183-.432.124m-.06.085-.017-.427" style="fill:none;fill-opacity:1;stroke:#4e4184;stroke-width:.0997637;stroke-linecap:round;stroke-linejoin:round;stroke-miterlimit:4;stroke-dasharray:none;stroke-opacity:1"/></svg>