<svg xmlns="http://www.w3.org/2000/svg" xmlns:xlink="http://www.w3.org/1999/xlink" xml:space="preserve" width="16" height="16"><defs><linearGradient xlink:href="#a" id="d" x1="-.801" x2="2.599" y1="-3.735" y2="4.018" gradientUnits="userSpaceOnUse"/><linearGradient id="a"><stop offset="0" style="stop-color:#a1a4c4;stop-opacity:1"/><stop offset="1" style="stop-color:#8083c6;stop-opacity:1"/></linearGradient><linearGradient xlink:href="#a" id="e" x1="-.801" x2="2.599" y1="-3.735" y2="4.018" gradientUnits="userSpaceOnUse"/><linearGradient xlink:href="#a" id="f" x1="-.801" x2="2.599" y1="-3.735" y2="4.018" gradientUnits="userSpaceOnUse"/><linearGradient id="b"><stop offset="0" style="stop-color:#fff;stop-opacity:1"/><stop offset="1" style="stop-color:#4e4184;stop-opacity:1"/></linearGradient><linearGradient xlink:href="#b" id="c" x1="37.669" x2="215.769" y1="87.94" y2="87.94" gradientUnits="userSpaceOnUse"/></defs><path d="M42.65.944 4.864 361.404" style="fill:#4e4184;fill-opacity:1;stroke:#4e4184;stroke-width:39.54132068;stroke-linecap:round;stroke-dasharray:none;stroke-opacity:1" transform="rotate(-7.605 10.541 -14.607) scale(.02529)"/><path d="M203.869 92.783c-18.9 3.1-49.6 3.9-70.1-34.8-21.9-41.7-57.3-42.9-78-39.1-10.1 1.9-17.6 10.3-17.6 18.4v103.6c5.9 2.3 12.3-.1 14-.4.4-.1.8-.2 1.3-.3 13.2-2.9 27.1-4.3 61.5 12.3 43.2 20.7 81-17.4 95.7-44 1.1-1.9 4.6-10.6 4.6-19.1-5.2 2.1-11.4 3.4-11.4 3.4z" style="fill:url(#c);stroke:#4e4184;stroke-width:39.54132068;stroke-dasharray:none;stroke-opacity:1" transform="rotate(-3.06 16.003 -40.113) scale(.02529)"/><g transform="matrix(-.06794 0 0 .06794 27.314 3.93)"><g style="fill:url(#d);fill-opacity:1;stroke:#64669b;stroke-width:.83646;stroke-miterlimit:4;stroke-dasharray:none;stroke-opacity:1" transform="translate(229.478 98.421) scale(9.56412)"><path d="m3.735-.8.944-.204.316.01 1.362.65v.688l-1.362.65-.316.01L3.735.8l-.528 1.274.811.524.217.23.504 1.422-.488.488-1.422-.504-.23-.217-.524-.81L.8 3.734l.203.944-.01.316-.65 1.362h-.688l-.65-1.362-.01-.316.203-.944-1.274-.528-.524.811-.23.217-1.422.504-.488-.488.504-1.422.217-.23.81-.524L-3.734.8l-.944.203-.316-.01-1.362-.65v-.688l1.362-.65.316-.01.944.203.528-1.274-.811-.524-.217-.23-.504-1.422.488-.488 1.422.504.23.217.524.81L-.8-3.734l-.203-.944.01-.316.65-1.362h.688l.65 1.362.01.316-.203.944 1.274.528.524-.811.23-.217 1.422-.504.488.488-.504 1.421-.217.23-.81.525z" style="fill:url(#e);fill-opacity:1;stroke:#64669b;stroke-width:.83646;stroke-miterlimit:4;stroke-dasharray:none;stroke-opacity:1"/><circle r="2" style="fill:url(#f);fill-opacity:1;stroke:#64669b;stroke-width:.83646;stroke-miterlimit:4;stroke-dasharray:none;stroke-opacity:1"/></g><circle cx="229.478" cy="98.421" r="4.633" style="opacity:1;fill:#fff;fill-opacity:1;stroke:none;stroke-width:15.0695;stroke-miterlimit:4;stroke-dasharray:none;stroke-opacity:1"/></g></svg>