<svg xmlns="http://www.w3.org/2000/svg" xmlns:xlink="http://www.w3.org/1999/xlink" xml:space="preserve" width="16" height="16"><defs><linearGradient id="a"><stop offset="0" style="stop-color:#4e4184;stop-opacity:1"/><stop offset="1" style="stop-color:#fff;stop-opacity:0"/></linearGradient><linearGradient xlink:href="#a" id="b" x1="1.607" x2="1.574" y1="3.553" y2="-2.893" gradientTransform="translate(.017 .05)" gradientUnits="userSpaceOnUse"/></defs><path fill="none" d="M1.231 1.429h2.277v1.552H1.231z" style="fill:#4b7eb0;fill-opacity:0;stroke:none;stroke-width:.0756102;stroke-miterlimit:4;stroke-dasharray:none;stroke-opacity:.827451" transform="translate(-1.001 .218) scale(3.66458)"/><g style="stroke:#64669b;stroke-opacity:1"><path d="M6.984 3.063H5.13" style="fill:none;stroke:#64669b;stroke-width:.277085;stroke-linecap:round;stroke-linejoin:miter;stroke-miterlimit:3.9;stroke-dasharray:none;stroke-dashoffset:.415627;stroke-opacity:1" transform="matrix(3.13395 0 0 3.72886 -7.11 .347)"/><path d="m7.149 3.052-.638-.53m.638.53-.638.53" style="fill:none;stroke:#64669b;stroke-width:.277085;stroke-linecap:round;stroke-linejoin:round;stroke-miterlimit:4;stroke-dasharray:none;stroke-opacity:1" transform="matrix(3.13395 0 0 3.72886 -7.11 .347)"/></g><g style="stroke:#64669b;stroke-opacity:1"><path d="M6.984 3.063H5.13" style="fill:none;stroke:#64669b;stroke-width:.277085;stroke-linecap:round;stroke-linejoin:miter;stroke-miterlimit:3.9;stroke-dasharray:none;stroke-dashoffset:.415627;stroke-opacity:1" transform="matrix(3.13395 0 0 3.72886 -7.149 -7.462)"/><path d="m7.149 3.052-.638-.53m.638.53-.638.53" style="fill:none;stroke:#64669b;stroke-width:.277085;stroke-linecap:round;stroke-linejoin:round;stroke-miterlimit:4;stroke-dasharray:none;stroke-opacity:1" transform="matrix(3.13395 0 0 3.72886 -7.149 -7.462)"/></g><path d="M.897.186h1.404v3.875H.897z" style="fill:url(#b);fill-opacity:1;stroke:#64669b;stroke-width:.25;stroke-linecap:square;stroke-dasharray:none" transform="translate(-1.001 .218) scale(3.66458)"/></svg>