<svg xmlns="http://www.w3.org/2000/svg" xmlns:xlink="http://www.w3.org/1999/xlink" xml:space="preserve" width="16" height="16"><defs><linearGradient xlink:href="#a" id="b" x1="2.499" x2="4.158" y1="3.396" y2="3.396" gradientTransform="matrix(-.51671 .51593 -.48483 -.48533 5.159 1.133)" gradientUnits="userSpaceOnUse"/><linearGradient id="a"><stop offset="0" style="stop-color:#e8e9f0;stop-opacity:1"/><stop offset="1" style="stop-color:#fdfeff;stop-opacity:1"/></linearGradient></defs><g style="stroke-width:1.1599"><path d="m1.778.54.055 1.705" style="fill:none;stroke:#4e4184;stroke-width:.245818;stroke-linecap:round;stroke-linejoin:miter;stroke-miterlimit:4;stroke-dasharray:none;stroke-opacity:1" transform="matrix(-2.44124 -2.28162 2.42853 -2.29355 13.922 10.555)"/></g><path d="m2.16 1.568-.757.024.022-.755.756-.025z" style="fill:url(#b);fill-opacity:1;stroke:#4e4184;stroke-width:.211667;stroke-linejoin:bevel;stroke-miterlimit:4;stroke-dasharray:none;stroke-dashoffset:0;stroke-opacity:1" transform="rotate(44.851 3.159 7.55) scale(3.87137)"/><g style="stroke-width:1.1599"><path d="m.527.257.055 1.704" style="fill:none;stroke:#4e4184;stroke-width:.245818;stroke-linecap:round;stroke-linejoin:miter;stroke-miterlimit:4;stroke-dasharray:none;stroke-opacity:1" transform="matrix(-2.44124 -2.28162 2.42853 -2.29355 3.2 15.21)"/></g><path d="M-.656-1.524A1.137 1.262 0 0 1-1.225-.43a1.137 1.262 0 0 1-1.137 0 1.137 1.262 0 0 1-.569-1.094" style="fill:none;stroke:#4e4184;stroke-width:.234002;stroke-linecap:round;stroke-opacity:1" transform="matrix(-2.75393 -2.7209 2.69985 -2.77458 6.243 -.03)"/></svg>