<svg xmlns="http://www.w3.org/2000/svg" xmlns:xlink="http://www.w3.org/1999/xlink" xml:space="preserve" width="16" height="16"><defs><linearGradient id="a"><stop offset="0" style="stop-color:#e8e9f0;stop-opacity:1"/><stop offset="1" style="stop-color:#fdfeff;stop-opacity:0"/></linearGradient><linearGradient xlink:href="#a" id="b" x1="-1.49" x2="-1.474" y1="2.14" y2="10.141" gradientUnits="userSpaceOnUse"/><linearGradient xlink:href="#a" id="c" x1="-1.49" x2="-1.474" y1="2.14" y2="10.141" gradientUnits="userSpaceOnUse"/></defs><path fill="none" d="M1.231 1.429h2.277v1.552H1.231z" style="fill:#4b7eb0;fill-opacity:0;stroke:none;stroke-width:.0756102;stroke-miterlimit:4;stroke-dasharray:none;stroke-opacity:.827451" transform="translate(-.68 1.185) scale(3.6356)"/><g style="fill:url(#b);fill-opacity:1;stroke-width:1.28241"><rect width="3.166" height="2.596" x="-3.03" y="1.938" ry=".725" style="fill:url(#c);fill-opacity:1;stroke:#4e4184;stroke-width:.271445;stroke-linecap:round;stroke-miterlimit:4;stroke-dasharray:.542889,.542889;stroke-dashoffset:.643322;stroke-opacity:1" transform="matrix(3.02266 0 0 2.65891 10.904 -1.55)"/></g><g style="stroke:#64669b;stroke-opacity:1"><path d="M6.984 3.063 5.29 3.045" style="fill:none;stroke:#64669b;stroke-width:.277085;stroke-linecap:round;stroke-linejoin:miter;stroke-miterlimit:3.9;stroke-dasharray:none;stroke-dashoffset:.415627;stroke-opacity:1" transform="translate(-10.493 .5) scale(3.6356)"/><path d="m6.198 2.035-.384.425-.522.579" style="fill:none;stroke:#64669b;stroke-width:.277;stroke-linecap:round;stroke-linejoin:miter;stroke-miterlimit:3.9;stroke-dasharray:none;stroke-dashoffset:.415627;stroke-opacity:1" transform="translate(-10.493 .5) scale(3.6356)"/><path d="m7.149 3.052-.638-.53m.638.53-.638.53" style="fill:none;stroke:#64669b;stroke-width:.277085;stroke-linecap:round;stroke-linejoin:round;stroke-miterlimit:4;stroke-dasharray:none;stroke-opacity:1" transform="translate(-10.493 .5) scale(3.6356)"/><path d="m6.202 2.029-1.42-.004" style="fill:none;stroke:#64669b;stroke-width:.277;stroke-linecap:round;stroke-linejoin:miter;stroke-miterlimit:3.9;stroke-dasharray:none;stroke-dashoffset:.415627;stroke-opacity:1" transform="translate(-10.493 .5) scale(3.6356)"/></g></svg>