<svg xmlns="http://www.w3.org/2000/svg" xmlns:xlink="http://www.w3.org/1999/xlink" xml:space="preserve" width="16" height="16"><defs><linearGradient xlink:href="#a" id="b" x1="-1.49" x2="-1.474" y1="2.14" y2="10.141" gradientUnits="userSpaceOnUse"/><linearGradient id="a"><stop offset="0" style="stop-color:#e8e9f0;stop-opacity:1"/><stop offset="1" style="stop-color:#fdfeff;stop-opacity:0"/></linearGradient><linearGradient xlink:href="#a" id="c" x1="-1.49" x2="-1.474" y1="2.14" y2="10.141" gradientTransform="matrix(2.59353 0 0 2.601 5.784 -.966)" gradientUnits="userSpaceOnUse"/></defs><g style="fill:url(#b);fill-opacity:1;stroke-width:1.28241;stroke:none" transform="translate(5.84 2.218)"><rect width="8.211" height="6.752" x="-2.074" y="4.075" ry="1.886" style="fill:url(#c);fill-opacity:1;stroke:none;stroke-width:.705014;stroke-linecap:round;stroke-miterlimit:4;stroke-dasharray:1.41003,1.41003;stroke-dashoffset:1.67087;stroke-opacity:1"/></g><path d="M1.494 3.537a.277.277 0 0 1-.203-.085.277.277 0 0 1-.084-.202V1.814c0-.08.028-.147.084-.203a.277.277 0 0 1 .203-.084h.143V1.24c0-.2.07-.368.21-.508.14-.14.31-.21.508-.21.199 0 .368.07.508.21.14.14.21.309.21.508v.287h.144c.079 0 .146.028.203.084a.277.277 0 0 1 .084.203V3.25a.277.277 0 0 1-.084.202.277.277 0 0 1-.203.085zm0-.287h1.723V1.814H1.494Zm.43-1.723h.862V1.24A.415.415 0 0 0 2.66.934.415.415 0 0 0 2.355.81a.415.415 0 0 0-.305.125.415.415 0 0 0-.125.306Zm-.43 1.723V1.814z" style="fill:#4e4184;fill-opacity:1;stroke-width:.254251;stroke-dasharray:none" transform="translate(-1.366 -.325) scale(3.93312)"/></svg>