<svg xmlns="http://www.w3.org/2000/svg" xmlns:xlink="http://www.w3.org/1999/xlink" xml:space="preserve" width="16" height="16"><defs><linearGradient id="a"><stop offset="0" style="stop-color:#4e4184;stop-opacity:1"/><stop offset="1" style="stop-color:#fff;stop-opacity:1"/></linearGradient><linearGradient xlink:href="#a" id="b" x1="3.369" x2="2.107" y1=".827" y2="-.411" gradientUnits="userSpaceOnUse"/></defs><path fill="none" d="M1.231 1.429h2.277v1.552H1.231z" style="fill:#4b7eb0;fill-opacity:0;stroke:none;stroke-width:.0756102;stroke-miterlimit:4;stroke-dasharray:none;stroke-opacity:.827451" transform="translate(-2.65 -.992) scale(4.18033)"/><g style="stroke:#64669b;stroke-opacity:1"><path d="M6.984 3.063H5.13" style="fill:none;stroke:#64669b;stroke-width:.277085;stroke-linecap:round;stroke-linejoin:miter;stroke-miterlimit:3.9;stroke-dasharray:none;stroke-dashoffset:.415627;stroke-opacity:1" transform="matrix(3.57502 0 0 4.25367 -19.591 -.845)"/><path d="m7.149 3.052-.638-.53m.638.53-.638.53" style="fill:none;stroke:#64669b;stroke-width:.277085;stroke-linecap:round;stroke-linejoin:round;stroke-miterlimit:4;stroke-dasharray:none;stroke-opacity:1" transform="matrix(3.57502 0 0 4.25367 -19.591 -.845)"/></g><g style="stroke:#64669b;stroke-opacity:1"><path d="M6.984 3.063H5.13" style="fill:none;stroke:#64669b;stroke-width:.277085;stroke-linecap:round;stroke-linejoin:miter;stroke-miterlimit:3.9;stroke-dasharray:none;stroke-dashoffset:.415627;stroke-opacity:1" transform="matrix(3.57502 0 0 4.25367 -19.707 -9.753)"/><path d="m7.149 3.052-.638-.53m.638.53-.638.53" style="fill:none;stroke:#64669b;stroke-width:.277085;stroke-linecap:round;stroke-linejoin:round;stroke-miterlimit:4;stroke-dasharray:none;stroke-opacity:1" transform="matrix(3.57502 0 0 4.25367 -19.707 -9.753)"/></g><path d="M1.871-.635v1.71h1.71v-1.71z" style="fill:url(#b);fill-opacity:1;stroke:#64669b;stroke-width:.150014;stroke-linecap:round;stroke-miterlimit:4;stroke-dasharray:none;stroke-dashoffset:.300095;stroke-opacity:1" transform="matrix(2.971 2.94081 -2.88317 3.02696 3.151 -.992)"/></svg>