<svg xmlns="http://www.w3.org/2000/svg" width="18" height="16" viewBox="0 0 4.762 4.233"><path d="M6.191.182 2.155 4.16" style="fill:none;stroke:#4e4184;stroke-width:.39698468;stroke-linecap:round;stroke-linejoin:miter;stroke-miterlimit:4;stroke-dasharray:none;stroke-opacity:1" transform="translate(.134 .136) scale(.66643)"/><path d="M.554 4.161h1.601v1.602H.554Z" style="fill:none;fill-opacity:1;stroke:#4e4184;stroke-width:.39698468;stroke-linejoin:bevel;stroke-miterlimit:4;stroke-dasharray:none;stroke-dashoffset:0;stroke-opacity:1" transform="translate(.134 .136) scale(.66643)"/><path d="M3.746 3.237a.148.148 0 1 1-.295 0 .148.148 0 0 1 .295 0m.295 0a.443.443 0 1 1-.886 0 .443.443 0 0 1 .886 0m-.147 0a.296.296 0 0 0-.296-.295.296.296 0 0 0-.295.295.296.296 0 0 0 .295.296.296.296 0 0 0 .296-.296m.443 0a.739.739 0 1 1-1.477 0 .739.739 0 0 1 1.477 0m-.148 0a.592.592 0 1 0-1.183.002.592.592 0 0 0 1.183-.002" style="fill:#4e4184;stroke-width:.0738664"/></svg>