<svg xmlns="http://www.w3.org/2000/svg" xml:space="preserve" width="32" height="32" fill="#4e4184"><path d="M19.21 16.009a3.202 3.202 0 1 1-6.401.001 3.202 3.202 0 0 1 6.401-.001m6.403 0a9.605 9.605 0 1 1-19.209 0 9.605 9.605 0 0 1 19.21 0m-3.202 0a6.41 6.41 0 0 0-6.403-6.403 6.41 6.41 0 0 0-6.403 6.403 6.41 6.41 0 0 0 6.403 6.403 6.41 6.41 0 0 0 6.403-6.403m9.604 0c0 8.84-7.166 16.007-16.007 16.007S0 24.85 0 16.01 7.168 0 16.01 0s16.006 7.168 16.006 16.01m-3.201 0c0-7.061-5.745-12.806-12.806-12.806S3.203 8.948 3.203 16.009s5.745 12.806 12.806 12.806 12.806-5.745 12.806-12.806" style="fill:#4e4184;stroke-width:1.60076"/></svg>