<svg xmlns="http://www.w3.org/2000/svg" xmlns:xlink="http://www.w3.org/1999/xlink" width="16" height="16"><defs><linearGradient id="a"><stop offset="0" style="stop-color:#e2e4fe;stop-opacity:1"/><stop offset="1" style="stop-color:#fff;stop-opacity:1"/></linearGradient><linearGradient id="b"><stop offset="0" style="stop-color:#bec2ef;stop-opacity:1"/><stop offset="1" style="stop-color:#b3b3e2;stop-opacity:1"/></linearGradient><linearGradient id="c"><stop offset="0" style="stop-color:#5b6493;stop-opacity:1"/><stop offset="1" style="stop-color:#e5e2f3;stop-opacity:1"/></linearGradient><linearGradient id="d"><stop offset="0" style="stop-color:#eff0fa;stop-opacity:1"/><stop offset="1" style="stop-color:#c8d1fd;stop-opacity:1"/></linearGradient><linearGradient xlink:href="#a" id="g" x1="663.49" x2="663.49" y1="387.34" y2="439.784" gradientTransform="translate(-8.177 -4.537) scale(.01627)" gradientUnits="userSpaceOnUse"/><linearGradient xlink:href="#b" id="h" x1="413.071" x2="508.357" y1="427.224" y2="427.224" gradientTransform="translate(-4.597 -4.537) scale(.01627)" gradientUnits="userSpaceOnUse"/><linearGradient xlink:href="#c" id="i" x1="589.554" x2="739.091" y1="482.239" y2="440.924" gradientTransform="translate(-8.177 -4.537) scale(.01627)" gradientUnits="userSpaceOnUse"/><linearGradient xlink:href="#d" id="j" x1="683.383" x2="683.383" y1="346.807" y2="371.166" gradientTransform="translate(-8.177 -4.537) scale(.01627)" gradientUnits="userSpaceOnUse"/><linearGradient xlink:href="#e" id="k" x1="-13" x2="-15" y1="1047.362" y2="1047.362" gradientTransform="translate(5.475 -308.056) scale(.29458)" gradientUnits="userSpaceOnUse"/><linearGradient id="e"><stop offset="0" style="stop-color:#fff;stop-opacity:0"/><stop offset="1" style="stop-color:#d6d3f4;stop-opacity:1"/></linearGradient><linearGradient xlink:href="#f" id="l" x1="-11" x2="-11" y1="1042.362" y2="1044.362" gradientTransform="translate(5.201 -306.28) scale(.29458)" gradientUnits="userSpaceOnUse"/><linearGradient id="f"><stop offset="0" style="stop-color:#d6d3f4;stop-opacity:1"/><stop offset="1" style="stop-color:#fff;stop-opacity:0"/></linearGradient></defs><path d="M1.053.995h2.79v2.136h-2.79z" style="display:inline;fill:#a5bae8;fill-opacity:1;stroke:#aeb9e8;stroke-width:.19559;stroke-opacity:1" transform="translate(-.846 -.706) scale(3.93587)"/><path d="M3.848 1.784c-.116-.081-.133-.133-.255-.133s-.14-.024-.192 0c-.052.023-.093.052-.169.052-.075 0-.133-.006-.186-.006-.052 0-.046-.035-.133.017-.088.053-.117.076-.204.093-.087.018-.052.006-.163-.029-.11-.035-.127-.046-.197-.128-.07-.08-.122-.08-.221-.075-.099.006-.11.04-.134.04-.023 0-.04.006-.116-.046-.076-.052-.11-.023-.105-.07.006-.046-.052-.075-.127-.07-.076.006-.082 0-.157.018-.076.017-.105-.023-.175.03-.07.051.047-.018-.14.08-.185.1-.209.07-.197.11.012.042.012.129.012.216v.849h2.923z" style="display:inline;fill:url(#g);fill-opacity:1;stroke:#fff;stroke-width:.0325493;stroke-linecap:butt;stroke-linejoin:miter;stroke-miterlimit:4;stroke-dasharray:none;stroke-opacity:1" transform="translate(-.846 -.706) scale(3.93587)"/><path d="M2.151 2.438a4.47 4.47 0 0 0 .195-.14c.026-.023.009-.08.052-.087.044-.005.14-.014.163.003.023.018.038.032.064.018.026-.015.09-.038.113-.02.023.017.035.034.061.037a.142.142 0 0 0 .082-.02.178.178 0 0 1 .087-.023.13.13 0 0 1 .084.034c.023.02.058.047.084.044.027-.003.038-.011.061.009.024.02.07.06.117.07.046.008.133.02.154.032.02.011.037.026.058.037.02.012.107.082.107.082l.035.043s-.258.056-.285.056l-1.113.014c-.011 0-.136-.081-.136-.081z" style="display:inline;fill:url(#h);fill-opacity:1;stroke:#dceaf7;stroke-width:.0162746px;stroke-linecap:butt;stroke-linejoin:miter;stroke-opacity:1" transform="translate(-.846 -.706) scale(3.93587)"/><path d="M.977 1.813s.285.1.343.093c.058-.006.087-.104.18-.052s.146.198.25.227c.105.029.064-.018.163.035.099.052.134.063.174.063.04 0 .054 0 .108.05.04.038.058.052.075.093.018.04.079.043.12.073.151.097.423.084.575.07.093 0 .343.028.418.034.076.006.117.006.192.006.076 0 .093-.006.151 0 .058.006.163.006.163.006l.03.093-.164.11H.977Z" style="display:inline;fill:#5f5d9b;fill-opacity:1;stroke:#513894;stroke-width:.0162746px;stroke-linecap:butt;stroke-linejoin:miter;stroke-opacity:1" transform="translate(-.846 -.706) scale(3.93587)"/><path d="M1.047 2.18c.087 0 .157.04.197.034.041-.006.198-.093.32-.046.122.046.233.151.29.163.059.011.227.04.332.04.105 0 .198-.064.285-.058.087.006.151.047.203.058.053.012.11-.023.151-.011.041.011.093.064.093.064s.221-.064.274-.035c.052.029.116.081.209.081.093 0 .081-.04.163-.006a.679.679 0 0 1 .174.134l.023.064s-.715 0-.738.006c-.023.006-1.36.035-1.395.035-.035 0-.395-.006-.424-.012-.03-.006-.233-.029-.233-.029s-.058-.448-.029-.448c.03 0 .105-.034.105-.034z" style="display:inline;fill:#6a69b6;fill-opacity:.998712;stroke:#8e8ffd;stroke-width:.0162746px;stroke-linecap:butt;stroke-linejoin:miter;stroke-opacity:1" transform="translate(-.846 -.706) scale(3.93587)"/><path d="M1.001 2.602h2.926v.559H1.001z" style="display:inline;fill:url(#i);fill-opacity:1;stroke:#316493;stroke-width:.0162746;stroke-linecap:round;stroke-linejoin:round;stroke-miterlimit:4;stroke-dasharray:none;stroke-dashoffset:0;stroke-opacity:1" transform="translate(-.846 -.706) scale(3.93587)"/><path d="M3.133 1.552a.354.354 0 0 1-.22.064c-.082-.006-.198.035-.21-.053-.011-.087-.052-.052-.081-.122-.03-.07-.047-.11-.023-.15.023-.042.07-.036.099-.07.029-.035.052-.105.104-.111.052-.006.099 0 .128-.006.03-.006.105-.087.151-.052.047.035.035.104.082.11.046.006.04.03.104-.035.064-.064.093-.11.163-.133.07-.024.14-.041.203-.024.064.018.093.024.146.047.052.023-.018.122-.117.151-.098.03-.098.017-.174.081-.076.064-.203.082-.186.117.017.035 0 .035.064.035s.169-.006.128.046c-.04.052.017.087-.076.105-.093.017-.116-.03-.116.017s-.029.122-.064.047c-.035-.076-.105-.064-.105-.064Z" style="display:inline;fill:url(#j);fill-opacity:1;stroke:url(#l);stroke-width:.0325493;stroke-linecap:butt;stroke-linejoin:miter;stroke-miterlimit:4;stroke-dasharray:none;stroke-opacity:1" transform="translate(-.846 -.706) scale(3.93587)"/><path d="M1.056.795v2.642h2.652V.795Zm.286.286h2.08v2.07h-2.08Z" style="display:inline;fill:#f4fcff;fill-opacity:1;stroke:none;stroke-width:.294584" transform="translate(-.846 -.706) scale(3.93587)"/><path d="M.908.65h2.947v2.934H.908Z" style="display:inline;fill:none;stroke:#4e4184;stroke-width:.294584;stroke-linecap:butt;stroke-linejoin:miter;stroke-miterlimit:4;stroke-dashoffset:0;stroke-opacity:1" transform="translate(-.846 -.706) scale(3.93587)"/><path d="M1.35 1.079v2.358h-.294V.784Z" style="display:inline;fill:url(#k);fill-opacity:1;stroke:none;stroke-width:.294584" transform="translate(-.846 -.706) scale(3.93587)"/><path d="m1.35 1.079 2.358.002V.787L1.056.784z" style="display:inline;fill:url(#l);fill-opacity:1;stroke:none;stroke-width:.294584;opacity:.99950084" transform="translate(-.846 -.706) scale(3.93587)"/></svg>