<svg xmlns="http://www.w3.org/2000/svg" width="18" height="16" viewBox="0 0 4.762 4.233"><path d="M6.191.182 2.155 4.16" style="fill:none;stroke:#4e4184;stroke-width:.39698468;stroke-linecap:round;stroke-linejoin:miter;stroke-miterlimit:4;stroke-dasharray:none;stroke-opacity:1" transform="translate(.134 .136) scale(.66643)"/><path d="M.554 4.161h1.601v1.602H.554Z" style="fill:none;fill-opacity:1;stroke:#4e4184;stroke-width:.39698468;stroke-linejoin:bevel;stroke-miterlimit:4;stroke-dasharray:none;stroke-dashoffset:0;stroke-opacity:1" transform="translate(.134 .136) scale(.66643)"/><path d="M3.006 3.237v-.775l.412.412Z" style="fill:#4e4184;fill-opacity:1;stroke:none;stroke-width:.210868px;stroke-linecap:butt;stroke-linejoin:miter;stroke-opacity:1" transform="translate(1.826 1.41) scale(.55995)"/><path d="M2.81 3.742c-.575-.528-.51-1.254 0-1.79" style="fill:none;stroke:#4e4184;stroke-width:.184489px;stroke-linecap:butt;stroke-linejoin:miter;stroke-opacity:1" transform="translate(1.826 1.41) scale(.55995)"/><path d="M4.187 3.237v-.775l-.412.412Z" style="fill:#4e4184;fill-opacity:1;stroke:none;stroke-width:.210868px;stroke-linecap:butt;stroke-linejoin:miter;stroke-opacity:1" transform="translate(1.826 1.41) scale(.55995)"/><path d="M4.383 3.743c.575-.53.51-1.255 0-1.791" style="fill:none;stroke:#4e4184;stroke-width:.184489px;stroke-linecap:butt;stroke-linejoin:miter;stroke-opacity:1" transform="translate(1.826 1.41) scale(.55995)"/><path d="M2.335 3.495V4.89l-.794-.698Z" style="fill:#4e4184;fill-opacity:1;stroke:none;stroke-width:.389941px;stroke-linecap:butt;stroke-linejoin:miter;stroke-opacity:1" transform="translate(1.826 1.41) scale(.55995)"/><path d="M3.622 3.354v.827H2.25" style="fill:none;fill-opacity:1;stroke:#4e4184;stroke-width:.184489px;stroke-linecap:butt;stroke-linejoin:miter;stroke-opacity:1" transform="translate(1.826 1.41) scale(.55995)"/></svg>