<!DOCTYPE svg PUBLIC "-//W3C//DTD SVG 1.1//EN" "http://www.w3.org/Graphics/SVG/1.1/DTD/svg11.dtd">
<!-- Uploaded to: SVG Repo, www.svgrepo.com, Transformed by: SVG Repo Mixer Tools -->
<svg fill="#4e4184" width="800px" height="800px" viewBox="0 0 24 24" xmlns="http://www.w3.org/2000/svg" enable-background="new 0 0 24 24">
<g id="SVGRepo_bgCarrier" stroke-width="0"/>
<g id="SVGRepo_tracerCarrier" stroke-linecap="round" stroke-linejoin="round"/>
<g id="SVGRepo_iconCarrier">
<path d="M3,8h18c0.6,0,1-0.4,1-1s-0.4-1-1-1H3C2.4,6,2,6.4,2,7S2.4,8,3,8z M13,16H3c-0.6,0-1,0.4-1,1s0.4,1,1,1h10c0.6,0,1-0.4,1-1S13.6,16,13,16z M21,11H3c-0.6,0-1,0.4-1,1s0.4,1,1,1h18c0.6,0,1-0.4,1-1S21.6,11,21,11z"/>
</g>
</svg>