<svg xmlns="http://www.w3.org/2000/svg" xmlns:xlink="http://www.w3.org/1999/xlink" width="18" height="16" viewBox="0 0 4.762 4.233"><defs><linearGradient xlink:href="#a" id="c" x1="-1.399" x2=".808" y1="1.9" y2="4.389" gradientTransform="matrix(.2737 0 0 .28159 3.514 2.108)" gradientUnits="userSpaceOnUse"/><linearGradient id="a"><stop offset="0" style="stop-color:#e8e9f0;stop-opacity:1"/><stop offset="1" style="stop-color:#fdfeff;stop-opacity:1"/></linearGradient><linearGradient xlink:href="#a" id="b" x1="-1.399" x2=".808" y1="1.9" y2="4.389" gradientTransform="matrix(.2737 0 0 .28159 4.412 3.166)" gradientUnits="userSpaceOnUse"/></defs><path d="M6.191.182 2.155 4.16" style="fill:none;stroke:#4e4184;stroke-width:.39698468;stroke-linecap:round;stroke-linejoin:miter;stroke-miterlimit:4;stroke-dasharray:none;stroke-opacity:1" transform="translate(.134 .136) scale(.66643)"/><path d="M.554 4.161h1.601v1.602H.554Z" style="fill:none;fill-opacity:1;stroke:#4e4184;stroke-width:.39698468;stroke-linejoin:bevel;stroke-miterlimit:4;stroke-dasharray:none;stroke-dashoffset:0;stroke-opacity:1" transform="translate(.134 .136) scale(.66643)"/><rect width=".885" height=".655" x="3.606" y="3.407" ry=".183" style="fill:url(#b);fill-opacity:1;stroke:#64669b;stroke-width:.0984455;stroke-linecap:round;stroke-miterlimit:4;stroke-dasharray:none;stroke-dashoffset:.300095;stroke-opacity:1"/><g style="stroke:#4e4184;stroke-opacity:1"><path d="M-.576.959h-1.6" style="fill:none;stroke:#4e4184;stroke-width:.161552;stroke-linecap:round;stroke-linejoin:miter;stroke-miterlimit:3.9;stroke-dasharray:none;stroke-dashoffset:.415627;stroke-opacity:1" transform="matrix(0 .42316 -.5035 0 4.522 3.527)"/><path d="m-.418.955-.48-.4m.482.415-.48.4" style="fill:none;stroke:#4e4184;stroke-width:.161552;stroke-linecap:round;stroke-linejoin:round;stroke-miterlimit:4;stroke-dasharray:none;stroke-opacity:1" transform="matrix(0 .42316 -.5035 0 4.522 3.527)"/><path d="M-2.176 1.983V.96" style="fill:none;stroke:#4e4184;stroke-width:.161552;stroke-linecap:round;stroke-linejoin:miter;stroke-miterlimit:3.9;stroke-dasharray:none;stroke-dashoffset:.415627;stroke-opacity:1" transform="matrix(0 .42316 -.5035 0 4.522 3.527)"/></g><rect width=".885" height=".655" x="2.708" y="2.349" ry=".183" style="fill:url(#c);fill-opacity:1;stroke:#64669b;stroke-width:.0984455;stroke-linecap:round;stroke-miterlimit:4;stroke-dasharray:none;stroke-dashoffset:.300095;stroke-opacity:1"/></svg>