<svg xmlns="http://www.w3.org/2000/svg" xmlns:xlink="http://www.w3.org/1999/xlink" xml:space="preserve" width="16" height="16"><defs><linearGradient id="a"><stop offset="0" style="stop-color:#a1a4c4;stop-opacity:1"/><stop offset="1" style="stop-color:#8083c6;stop-opacity:1"/></linearGradient><linearGradient xlink:href="#a" id="l" x1="-.801" x2="2.599" y1="-3.735" y2="4.018" gradientUnits="userSpaceOnUse"/><linearGradient xlink:href="#a" id="m" x1="-.801" x2="2.599" y1="-3.735" y2="4.018" gradientUnits="userSpaceOnUse"/><linearGradient xlink:href="#a" id="n" x1="-.801" x2="2.599" y1="-3.735" y2="4.018" gradientUnits="userSpaceOnUse"/><linearGradient xlink:href="#a" id="i" x1="-.801" x2="2.599" y1="-3.735" y2="4.018" gradientUnits="userSpaceOnUse"/><linearGradient xlink:href="#a" id="j" x1="-.801" x2="2.599" y1="-3.735" y2="4.018" gradientUnits="userSpaceOnUse"/><linearGradient xlink:href="#a" id="k" x1="-.801" x2="2.599" y1="-3.735" y2="4.018" gradientUnits="userSpaceOnUse"/><linearGradient xlink:href="#a" id="f" x1="-.801" x2="2.599" y1="-3.735" y2="4.018" gradientUnits="userSpaceOnUse"/><linearGradient xlink:href="#a" id="g" x1="-.801" x2="2.599" y1="-3.735" y2="4.018" gradientUnits="userSpaceOnUse"/><linearGradient xlink:href="#a" id="h" x1="-.801" x2="2.599" y1="-3.735" y2="4.018" gradientUnits="userSpaceOnUse"/><linearGradient id="b"><stop offset="0" style="stop-color:#fff;stop-opacity:1"/><stop offset="1" style="stop-color:#4e4184;stop-opacity:1"/></linearGradient><linearGradient xlink:href="#b" id="e" x1="37.669" x2="215.769" y1="87.94" y2="87.94" gradientTransform="rotate(-13.461 19.058 -15.494) scale(.0128)" gradientUnits="userSpaceOnUse"/><linearGradient xlink:href="#c" id="d" x1="-47.667" x2="-163.76" y1="112.973" y2="34.596" gradientTransform="matrix(.13517 0 0 .10684 22.52 .28)" gradientUnits="userSpaceOnUse"/><linearGradient id="c"><stop offset="0" style="stop-color:#e8e9f0;stop-opacity:1"/><stop offset="1" style="stop-color:#fdfeff;stop-opacity:1"/></linearGradient></defs><path d="M-.076 3.648h16.152v8.704H-.076Z" style="fill:url(#d);fill-opacity:1;stroke:none;stroke-width:.823838;stroke-miterlimit:4;stroke-dasharray:none;stroke-opacity:1"/><path d="M.173 3.01h15.654v.4H.173Zm0 9.58h15.654v.4H.173Z" style="fill:#4e4184;fill-opacity:1;stroke:#4e4184;stroke-width:.717953;stroke-miterlimit:4;stroke-dasharray:none;stroke-opacity:1"/><path d="m4.69 4.168.687 2.962" style="fill:#4e4184;fill-opacity:1;stroke:#4e4184;stroke-width:.282537;stroke-linecap:round;stroke-dasharray:none;stroke-opacity:1" transform="translate(-.546 .218)"/><path d="M6.95 4.564c-.225.095-.605.197-.976-.224-.397-.454-.841-.363-1.088-.254-.12.054-.188.18-.164.282l.31 1.29c.08.01.152-.039.173-.047l.015-.008c.155-.076.324-.134.802-.03.6.128.956-.459 1.06-.834a.602.602 0 0 0 0-.251 1.056 1.056 0 0 1-.131.076z" style="fill:url(#e);stroke:#4e4184;stroke-width:.27701;stroke-dasharray:none;stroke-opacity:1" transform="translate(-.546 .218)"/><path d="M9.253 5.574h1.782l-.891.948Z" style="fill:#64669b;fill-opacity:1;stroke:none;stroke-width:.663572px;stroke-linecap:butt;stroke-linejoin:miter;stroke-opacity:1" transform="translate(-.546 .218)"/><path d="M8.285 4.141h1.885v1.477" style="fill:none;fill-opacity:1;stroke:#64669b;stroke-width:.31395px;stroke-linecap:butt;stroke-linejoin:miter;stroke-opacity:1" transform="translate(-.546 .218)"/><g style="opacity:.237642" transform="translate(-2.623 5.482) scale(.03947)"><g style="fill:url(#f);fill-opacity:1;stroke:#64669b;stroke-width:.83646;stroke-miterlimit:4;stroke-dasharray:none;stroke-opacity:1" transform="translate(229.478 98.421) scale(9.56412)"><path d="m3.735-.8.944-.204.316.01 1.362.65v.688l-1.362.65-.316.01L3.735.8l-.528 1.274.811.524.217.23.504 1.422-.488.488-1.422-.504-.23-.217-.524-.81L.8 3.734l.203.944-.01.316-.65 1.362h-.688l-.65-1.362-.01-.316.203-.944-1.274-.528-.524.811-.23.217-1.422.504-.488-.488.504-1.422.217-.23.81-.524L-3.734.8l-.944.203-.316-.01-1.362-.65v-.688l1.362-.65.316-.01.944.203.528-1.274-.811-.524-.217-.23-.504-1.422.488-.488 1.422.504.23.217.524.81L-.8-3.734l-.203-.944.01-.316.65-1.362h.688l.65 1.362.01.316-.203.944 1.274.528.524-.811.23-.217 1.422-.504.488.488-.504 1.421-.217.23-.81.525z" style="fill:url(#g);fill-opacity:1;stroke:#64669b;stroke-width:.83646;stroke-miterlimit:4;stroke-dasharray:none;stroke-opacity:1"/><circle r="2" style="fill:url(#h);fill-opacity:1;stroke:#64669b;stroke-width:.83646;stroke-miterlimit:4;stroke-dasharray:none;stroke-opacity:1"/></g><circle cx="229.478" cy="98.421" r="4.633" style="opacity:1;fill:#fff;fill-opacity:1;stroke:none;stroke-width:15.0695;stroke-miterlimit:4;stroke-dasharray:none;stroke-opacity:1"/></g><g style="opacity:.401052" transform="translate(-1.057 5.482) scale(.03947)"><g style="fill:url(#i);fill-opacity:1;stroke:#64669b;stroke-width:.83646;stroke-miterlimit:4;stroke-dasharray:none;stroke-opacity:1" transform="translate(229.478 98.421) scale(9.56412)"><path d="m3.735-.8.944-.204.316.01 1.362.65v.688l-1.362.65-.316.01L3.735.8l-.528 1.274.811.524.217.23.504 1.422-.488.488-1.422-.504-.23-.217-.524-.81L.8 3.734l.203.944-.01.316-.65 1.362h-.688l-.65-1.362-.01-.316.203-.944-1.274-.528-.524.811-.23.217-1.422.504-.488-.488.504-1.422.217-.23.81-.524L-3.734.8l-.944.203-.316-.01-1.362-.65v-.688l1.362-.65.316-.01.944.203.528-1.274-.811-.524-.217-.23-.504-1.422.488-.488 1.422.504.23.217.524.81L-.8-3.734l-.203-.944.01-.316.65-1.362h.688l.65 1.362.01.316-.203.944 1.274.528.524-.811.23-.217 1.422-.504.488.488-.504 1.421-.217.23-.81.525z" style="fill:url(#j);fill-opacity:1;stroke:#64669b;stroke-width:.83646;stroke-miterlimit:4;stroke-dasharray:none;stroke-opacity:1"/><circle r="2" style="fill:url(#k);fill-opacity:1;stroke:#64669b;stroke-width:.83646;stroke-miterlimit:4;stroke-dasharray:none;stroke-opacity:1"/></g><circle cx="229.478" cy="98.421" r="4.633" style="opacity:1;fill:#fff;fill-opacity:1;stroke:none;stroke-width:15.0695;stroke-miterlimit:4;stroke-dasharray:none;stroke-opacity:1"/></g><g transform="translate(.51 5.482) scale(.03947)"><g style="fill:url(#l);fill-opacity:1;stroke:#64669b;stroke-width:.83646;stroke-miterlimit:4;stroke-dasharray:none;stroke-opacity:1" transform="translate(229.478 98.421) scale(9.56412)"><path d="m3.735-.8.944-.204.316.01 1.362.65v.688l-1.362.65-.316.01L3.735.8l-.528 1.274.811.524.217.23.504 1.422-.488.488-1.422-.504-.23-.217-.524-.81L.8 3.734l.203.944-.01.316-.65 1.362h-.688l-.65-1.362-.01-.316.203-.944-1.274-.528-.524.811-.23.217-1.422.504-.488-.488.504-1.422.217-.23.81-.524L-3.734.8l-.944.203-.316-.01-1.362-.65v-.688l1.362-.65.316-.01.944.203.528-1.274-.811-.524-.217-.23-.504-1.422.488-.488 1.422.504.23.217.524.81L-.8-3.734l-.203-.944.01-.316.65-1.362h.688l.65 1.362.01.316-.203.944 1.274.528.524-.811.23-.217 1.422-.504.488.488-.504 1.421-.217.23-.81.525z" style="fill:url(#m);fill-opacity:1;stroke:#64669b;stroke-width:.83646;stroke-miterlimit:4;stroke-dasharray:none;stroke-opacity:1"/><circle r="2" style="fill:url(#n);fill-opacity:1;stroke:#64669b;stroke-width:.83646;stroke-miterlimit:4;stroke-dasharray:none;stroke-opacity:1"/></g><circle cx="229.478" cy="98.421" r="4.633" style="opacity:1;fill:#fff;fill-opacity:1;stroke:none;stroke-width:15.0695;stroke-miterlimit:4;stroke-dasharray:none;stroke-opacity:1"/></g></svg>