<svg width="16" height="16" fill="currentColor" class="bi bi-chat-right-text" viewBox="0 0 16 16" xmlns="http://www.w3.org/2000/svg"><path d="M2 1a1 1 0 00-1 1v8a1 1 0 001 1h9.586a2 2 0 011.414.586l2 2V2a1 1 0 00-1-1zm12-1a2 2 0 012 2v12.793a.5.5 0 01-.854.353l-2.853-2.853a1 1 0 00-.707-.293H2a2 2 0 01-2-2V2a2 2 0 012-2z" fill="#fff"/><path d="M3 3.5a.5.5 0 01.5-.5h9a.5.5 0 010 1h-9a.5.5 0 01-.5-.5M3 6a.5.5 0 01.5-.5h9a.5.5 0 010 1h-9A.5.5 0 013 6m0 2.5a.5.5 0 01.5-.5h5a.5.5 0 010 1h-5a.5.5 0 01-.5-.5" fill="#fff"/></svg>