<svg version="1.1" id="Layer_1" x="0" y="0" viewBox="0 0 64 64" xml:space="preserve" xmlns="http://www.w3.org/2000/svg"><style type="text/css" id="style1">.st0{fill:#1e1741}</style><g id="g5"><circle id="path5" cx="32" cy="32" r="32" fill="#fff" fill-opacity="1" stroke="#000" stroke-width="0" stroke-dasharray="none"/><g id="g3" transform="translate(3.603 3.609) scale(.8874)"><path class="st0" d="M34.71 34.43v29.16l22.88-12.36a9.624 9.624 0 005.05-8.47V19.47z" id="path1"/><path class="st0" d="M26.8 37.47v22.16l-19-10.26a7.595 7.595 0 01-3.99-6.69V23.55l21.15 11.42 2.61-1.38L1.36 19.43v23.25c0 3.7 2.02 7.09 5.28 8.85l22.62 12.21V36.17z" id="path2"/><path class="st0" d="M54.53 17.03L31.98 29.12 6.57 15.49 28.26 3.66a7.74 7.74 0 017.44 0l18.87 10.29h5.12L36.87 1.5a10.192 10.192 0 00-9.79 0L1.41 15.51l30.57 16.4 27.74-14.88z" id="path3"/></g></g></svg>